<?xml version="1.0" standalone="no"?>
<!DOCTYPE svg PUBLIC "-//W3C//DTD SVG 20010904//EN"
 "http://www.w3.org/TR/2001/REC-SVG-20010904/DTD/svg10.dtd">
<svg version="1.0" xmlns="http://www.w3.org/2000/svg"
 width="573.000000pt" height="573.000000pt" viewBox="0 0 573.000000 573.000000"
 preserveAspectRatio="xMidYMid meet">
<metadata>
Created by potrace 1.11, written by Peter Selinger 2001-2013
</metadata>
<g transform="translate(0.000000,573.000000) scale(0.100000,-0.100000)"
fill="#000000" stroke="none">
<path d="M24 5695 c8 -19 29 -55 46 -80 36 -52 62 -109 66 -145 4 -39 46 -120
61 -120 8 0 17 -8 20 -17 4 -10 17 -33 30 -52 12 -18 34 -56 48 -85 15 -28 30
-58 35 -66 35 -61 45 -118 42 -249 l-3 -134 42 -49 c44 -53 72 -117 84 -194 4
-26 13 -64 20 -84 41 -112 77 -316 69 -395 -12 -110 -10 -122 34 -190 17 -27
34 -63 36 -80 23 -144 39 -226 61 -320 30 -133 32 -188 5 -238 -23 -42 -26
-92 -7 -123 48 -84 58 -109 63 -171 5 -70 35 -193 60 -251 8 -18 14 -61 14
-96 0 -53 -4 -67 -25 -90 -14 -15 -25 -34 -25 -42 0 -7 -9 -14 -20 -14 -11 0
-20 4 -20 9 0 4 -11 20 -25 35 -13 14 -29 44 -35 66 -6 21 -15 42 -20 45 -6 3
-10 18 -10 32 0 16 -13 37 -36 58 -28 26 -36 41 -39 77 -3 25 -9 58 -16 74 -6
16 -12 45 -14 64 -10 95 -13 144 -8 133 7 -18 53 40 53 67 0 17 -3 20 -13 12
-24 -20 -71 35 -74 86 -4 59 -26 162 -35 162 -4 0 -8 6 -8 14 0 7 -9 20 -21
27 -32 22 -37 94 -10 148 12 23 26 39 31 36 6 -4 10 -1 10 4 0 6 -4 11 -10 11
-5 0 -10 4 -10 10 0 5 -17 32 -38 60 -45 60 -46 91 -1 158 16 24 29 45 29 48
0 2 -12 4 -26 4 -17 0 -28 6 -31 20 -3 11 -9 20 -14 20 -4 0 -11 17 -15 38 -4
20 -10 42 -15 48 -10 13 -15 136 -6 150 3 6 -9 43 -28 82 -32 64 -34 75 -26
113 5 23 14 45 19 48 5 3 13 20 19 37 11 31 2 82 -24 145 -12 26 -28 85 -38
132 -3 15 -12 27 -20 27 -16 0 -48 54 -38 64 4 4 -2 9 -14 12 -15 4 -23 17
-28 42 -6 30 -9 33 -14 18 -5 -14 -10 -16 -15 -8 -12 19 -32 14 -46 -12 -15
-29 -38 -24 -51 13 -11 27 16 159 35 173 5 3 2 13 -7 23 -10 9 -17 22 -18 28
0 7 -2 28 -5 47 -2 19 2 68 11 109 12 59 13 77 3 89 -7 8 -25 42 -40 76 l-27
61 -1 -2313 c0 -2236 1 -2315 19 -2340 10 -15 26 -48 35 -73 l18 -47 -39 -36
c-32 -30 -36 -37 -23 -47 11 -8 12 -12 2 -16 -6 -2 -12 -14 -12 -24 0 -19 2
-19 22 -5 20 14 24 14 40 -1 19 -17 24 -43 8 -43 -5 0 -10 -8 -11 -17 0 -14
-2 -14 -9 3 -10 26 -26 38 -34 25 -4 -5 -1 -13 4 -16 6 -4 16 -19 21 -33 13
-34 -10 -51 -28 -19 -10 18 -12 -21 -13 -210 l0 -233 790 0 c435 0 790 4 790
8 0 7 63 42 75 42 3 0 5 -5 5 -11 0 -40 -25 -39 1184 -39 636 0 1157 3 1157 8
1 4 3 23 5 42 5 42 19 59 36 42 9 -9 9 -22 1 -52 -8 -32 -7 -40 3 -40 8 0 15
21 20 58 8 68 28 102 59 102 46 0 67 -52 51 -128 l-8 -32 781 0 781 0 0 200
c0 181 -2 199 -16 193 -10 -4 -22 0 -28 8 -6 9 -20 19 -31 23 -16 7 -17 9 -5
13 44 13 43 13 30 28 -8 10 -20 13 -34 9 -18 -6 -19 -5 -8 9 8 9 9 18 3 21 -5
4 -12 2 -16 -4 -9 -15 -25 -12 -25 5 0 13 41 22 74 16 5 -1 4 5 -3 13 -7 8
-25 16 -39 18 -19 2 -28 10 -30 25 -4 27 -49 43 -62 22 -7 -11 -13 -10 -29 5
-26 23 -57 13 -65 -22 -7 -35 -46 -82 -53 -64 -6 15 -23 16 -23 2 0 -6 11 -15
24 -19 25 -10 41 -47 24 -57 -6 -4 -15 1 -20 10 -10 18 -35 21 -40 5 -2 -6 -9
0 -16 15 -8 17 -8 26 -1 26 6 0 8 9 4 20 -4 14 -2 20 9 20 23 0 8 28 -17 32
-14 2 -22 10 -22 23 0 26 -24 59 -50 69 -15 5 -16 9 -6 15 11 7 11 15 2 41 -8
23 -8 37 -1 46 8 9 4 14 -20 19 -31 7 -43 35 -14 35 11 0 14 6 8 23 -8 26 -37
68 -59 87 -8 7 -15 23 -15 36 0 12 -7 29 -15 37 -8 8 -11 18 -7 22 4 3 -1 11
-11 16 -9 6 -15 14 -12 19 3 4 -2 10 -10 14 -8 3 -12 12 -9 21 4 9 0 15 -10
15 -8 0 -23 11 -31 24 -9 13 -29 26 -45 30 -17 3 -30 12 -30 19 0 8 -11 19
-24 25 -13 6 -27 20 -31 31 -3 11 -15 23 -26 26 -11 4 -38 21 -62 38 -23 18
-70 45 -104 61 -57 27 -79 46 -53 46 17 0 120 -52 120 -61 0 -5 9 -9 19 -9 11
0 23 -5 26 -10 4 -6 24 -19 46 -30 22 -12 64 -42 94 -68 29 -26 71 -60 93 -77
43 -33 98 -98 124 -146 9 -17 23 -38 30 -47 8 -9 36 -61 62 -115 52 -106 86
-139 159 -151 21 -4 35 -10 33 -14 -3 -5 9 -9 25 -10 49 -4 139 -56 194 -112
l25 -25 0 188 c0 118 -4 187 -10 187 -5 0 -10 6 -10 14 0 8 -6 21 -13 28 -7 7
-16 21 -20 31 -3 9 -16 17 -27 17 -11 0 -23 7 -26 15 -4 8 -15 15 -25 15 -23
0 -24 4 -2 37 17 26 17 26 -4 14 -27 -14 -66 -15 -58 -1 3 5 3 15 -1 21 -4 8
-9 7 -15 -2 -4 -7 -11 -10 -15 -7 -11 12 17 67 37 73 23 8 25 31 4 39 -8 3
-15 15 -15 26 0 22 -16 27 -23 8 -2 -8 -8 -9 -13 -4 -5 5 -4 11 4 13 14 5 17
43 3 43 -5 0 -9 20 -9 43 1 51 -6 67 -30 67 -10 0 -26 10 -37 23 -40 45 -85
107 -85 116 0 5 -7 11 -15 15 -8 3 -15 15 -15 26 0 11 -7 23 -16 27 -11 4 -14
13 -9 30 3 14 -1 48 -9 76 -8 29 -17 68 -20 87 -3 19 -15 62 -26 95 -11 33
-23 71 -25 85 -2 14 -7 41 -10 60 l-7 35 26 -30 c14 -16 25 -33 26 -37 0 -13
28 -9 34 5 4 8 10 5 22 -11 9 -12 23 -22 30 -22 20 0 17 33 -5 52 -15 13 -19
31 -20 103 -2 121 5 155 34 155 30 0 36 -30 39 -193 2 -139 -2 -159 -30 -136
-20 16 -20 13 16 -86 44 -121 148 -313 162 -299 4 3 11 -4 18 -15 6 -12 17
-21 25 -21 8 0 15 -6 15 -14 0 -8 4 -16 8 -18 4 -2 29 -32 54 -68 26 -36 56
-74 67 -84 l21 -19 0 351 c0 387 4 361 -63 405 -36 23 -37 97 -1 97 8 0 14 5
14 10 0 6 -7 10 -15 10 -19 0 -19 21 0 46 19 25 19 34 -1 34 -13 0 -15 7 -10
34 5 28 3 35 -11 39 -14 4 -13 5 4 6 13 0 22 4 20 9 -2 7 6 12 23 12 7 0 7 -6
0 -19 -16 -31 -12 -41 15 -41 26 0 35 24 13 33 -10 4 -10 6 0 6 9 1 12 344 12
1681 l0 1680 -95 0 -95 0 0 -280 c0 -180 -4 -280 -10 -280 -5 0 -10 -19 -10
-43 0 -34 -6 -49 -28 -70 -15 -15 -33 -27 -40 -27 -7 0 -12 -6 -13 -12 0 -21
-54 -57 -111 -76 -42 -14 -61 -16 -90 -7 -53 15 -142 89 -154 130 -4 11 -9 22
-13 25 -17 14 -27 71 -21 120 7 57 3 93 -10 85 -4 -3 -11 3 -14 12 -4 9 -2 19
4 23 8 5 8 47 1 146 -6 77 -7 166 -4 197 l6 57 -332 0 -331 0 0 -79 c0 -45 -5
-83 -11 -86 -6 -4 -9 -52 -8 -128 l1 -121 -26 -9 c-31 -10 -33 -21 -6 -40 21
-14 21 -14 -2 -20 -12 -4 -19 -9 -16 -12 11 -11 -13 -65 -28 -65 -8 0 -14 -4
-14 -10 0 -16 -58 -5 -80 15 -11 10 -20 25 -20 33 0 8 -8 22 -17 31 -12 11
-18 32 -19 66 0 28 -4 134 -9 238 l-8 187 -1026 0 -1027 0 1 -80 c0 -53 4 -80
11 -80 9 0 9 -11 1 -41 -7 -30 -7 -50 1 -73 17 -47 14 -98 -8 -126 -15 -20
-22 -22 -31 -13 -12 12 -14 48 -8 188 2 50 -2 88 -9 102 -7 12 -12 34 -12 50
0 15 -3 38 -6 50 l-6 23 -989 0 -989 0 14 -35z m1416 -110 c0 -8 -4 -15 -10
-15 -5 0 -7 7 -4 15 4 8 8 15 10 15 2 0 4 -7 4 -15z m49 -77 c3 2 7 -5 9 -15
2 -10 7 -27 11 -38 27 -64 31 -78 31 -100 0 -14 4 -25 9 -25 8 0 20 -42 27
-99 2 -18 -32 -98 -51 -119 -1 -1 -18 4 -37 12 -34 14 -35 17 -37 70 -2 56 5
66 27 44 9 -9 12 -9 12 0 0 7 -4 12 -10 12 -5 0 -14 17 -20 38 -5 20 -19 51
-30 67 -27 41 -29 159 -3 174 13 7 23 5 37 -7 10 -9 21 -16 25 -14z m2611
-268 c0 -5 -4 -10 -10 -10 -5 0 -10 5 -10 10 0 6 5 10 10 10 6 0 10 -4 10 -10z
m45 -40 c3 -5 1 -10 -4 -10 -6 0 -11 5 -11 10 0 6 2 10 4 10 3 0 8 -4 11 -10z
m199 -71 c-7 -11 -34 -12 -34 -1 0 14 11 21 26 15 8 -3 11 -9 8 -14z m-2856
-47 c3 -9 -2 -13 -14 -10 -9 1 -19 9 -22 16 -3 9 2 13 14 10 9 -1 19 -9 22
-16z m2882 -31 c0 -12 -20 -25 -27 -18 -7 7 6 27 18 27 5 0 9 -4 9 -9z m-762
-1163 c-3 -13 33 -26 82 -27 19 -1 47 -7 62 -15 20 -11 37 -12 70 -4 24 5 63
7 88 4 25 -3 62 -5 83 -5 25 0 39 -5 43 -16 4 -10 17 -14 37 -13 18 2 32 -3
35 -11 2 -7 16 -27 31 -44 53 -63 66 -112 80 -292 11 -135 8 -254 -8 -283 -9
-18 0 -106 18 -182 17 -73 15 -81 -16 -74 -16 4 -33 15 -40 24 -24 33 -86 73
-122 77 -86 10 -138 10 -169 1 -24 -7 -37 -7 -45 1 -14 14 -44 14 -49 1 -1 -5
-22 -12 -45 -16 -34 -5 -43 -4 -43 8 0 8 -11 20 -25 26 -22 10 -25 9 -31 -12
-4 -18 -11 -22 -31 -20 -13 1 -27 5 -29 7 -3 3 -20 1 -39 -3 -18 -4 -37 -4
-42 1 -5 5 -31 0 -60 -11 -75 -28 -263 -21 -263 11 0 5 -7 9 -15 9 -7 0 -18 7
-23 16 -7 12 -17 15 -33 11 -24 -6 -89 11 -100 26 -7 9 -129 26 -174 24 -16
-1 -36 -8 -43 -14 -16 -15 -56 -17 -47 -3 3 6 -3 10 -13 10 -26 0 -33 21 -15
45 9 13 26 20 51 21 20 0 46 4 57 8 11 5 27 10 35 13 12 4 11 7 -5 19 -16 12
-17 16 -6 23 8 5 11 16 6 30 -6 19 -2 21 29 21 37 0 57 16 32 26 -20 8 -21 24
-2 24 8 0 16 7 20 15 3 8 11 13 18 10 20 -8 40 10 43 39 3 25 -8 35 -19 17 -8
-12 -69 -6 -74 8 -2 6 5 11 16 11 19 0 20 2 6 30 -9 16 -24 36 -35 44 -11 8
-16 17 -11 20 5 3 17 -6 26 -19 9 -14 21 -23 27 -19 6 4 6 11 -2 20 -9 11 -9
17 1 29 7 8 17 15 22 15 16 0 38 27 38 47 -1 16 -2 16 -12 -2 -15 -28 -15 -28
-27 -20 -8 4 -6 16 6 37 14 23 15 32 5 35 -6 3 -9 9 -6 14 3 6 15 4 29 -5 28
-19 65 -10 65 15 0 20 34 27 45 9 12 -19 25 -10 26 18 0 15 3 20 6 12 2 -8 7
-22 10 -30 3 -9 10 3 19 29 7 25 10 49 7 53 -3 5 4 12 16 15 21 5 30 23 12 23
-20 0 -3 35 20 41 13 3 23 11 22 17 -2 7 4 12 12 12 8 0 15 -4 15 -10 0 -16
32 -11 46 8 11 14 16 15 33 4 14 -8 21 -9 21 -1 0 7 11 8 31 4 22 -5 34 -3 40
6 6 10 9 11 9 2 0 -9 16 -13 46 -13 25 0 43 4 39 9 -3 6 12 12 32 14 21 2 41
4 46 5 4 1 6 -3 5 -10z m-668 -253 c0 -8 -4 -15 -10 -15 -5 0 -7 7 -4 15 4 8
8 15 10 15 2 0 4 -7 4 -15z m1915 -157 c4 -24 16 -61 28 -83 19 -38 19 -47 9
-196 -11 -168 -21 -201 -79 -265 -34 -37 -93 -74 -120 -74 -10 0 -23 -4 -28
-9 -6 -5 -35 -10 -65 -12 -30 -1 -65 -8 -77 -15 -12 -8 -30 -11 -40 -7 -15 6
-14 2 6 -28 12 -19 25 -42 28 -51 3 -10 12 -18 19 -18 18 0 17 -30 -1 -55 -19
-24 -134 -39 -142 -18 -3 7 -18 19 -34 27 l-28 14 6 -31 c3 -18 9 -48 13 -67
7 -34 8 -34 17 -11 17 43 22 7 9 -60 -8 -35 -17 -120 -20 -189 -6 -100 -13
-142 -37 -212 -16 -48 -29 -93 -29 -100 0 -7 -10 -24 -21 -38 -39 -48 -69
-100 -69 -118 0 -10 -3 -22 -7 -26 -4 -4 -19 -44 -33 -89 -22 -71 -30 -82 -51
-86 -23 -3 -23 -2 -6 16 21 24 22 53 2 53 -8 0 -15 6 -15 13 0 8 -3 8 -9 -2
-7 -10 -4 -19 7 -28 12 -9 13 -12 4 -13 -10 0 -13 -11 -10 -38 3 -35 2 -37
-24 -34 -16 2 -28 -1 -28 -7 0 -6 9 -11 20 -11 15 0 20 -7 20 -26 0 -15 4 -23
10 -19 6 4 8 15 5 26 -4 11 -2 19 4 19 6 0 14 0 18 0 9 0 8 -24 -2 -68 -8 -34
-25 -54 -25 -29 0 19 -26 40 -42 35 -8 -3 -3 -12 13 -26 20 -17 24 -30 21 -53
-3 -22 -9 -29 -20 -24 -12 4 -13 -1 -9 -24 4 -17 2 -33 -3 -36 -6 -4 -10 9
-10 29 0 19 -3 42 -7 52 -5 13 -3 16 10 11 11 -4 17 -1 17 8 0 18 -76 21 -100
4 -11 -7 -5 -8 23 -3 29 5 37 3 37 -9 0 -10 -11 -17 -27 -19 -21 -2 -31 -11
-38 -33 -14 -41 -25 -56 -36 -50 -5 4 -5 14 1 26 9 15 7 19 -6 19 -14 0 -14 3
-4 15 10 12 10 19 2 27 -16 16 -26 2 -31 -44 -2 -16 -31 5 -31 22 0 11 -10 20
-27 23 -33 6 -44 0 -23 -13 9 -6 10 -10 3 -10 -24 0 -66 21 -106 54 -52 42
-194 116 -224 116 -12 0 -25 -5 -29 -11 -3 -6 -15 -9 -25 -6 -11 3 -17 1 -13
-4 3 -5 23 -9 44 -9 30 0 43 -5 55 -23 8 -13 27 -30 43 -38 15 -8 33 -20 40
-26 11 -11 9 -13 -12 -13 -14 0 -26 5 -26 11 0 6 -9 8 -21 4 -25 -8 -98 24
-79 35 8 5 -5 15 -36 30 -27 12 -56 26 -64 31 -76 44 -92 49 -167 50 -64 1
-72 3 -43 9 128 30 177 51 165 70 -4 6 -1 10 4 10 6 0 11 9 11 20 0 22 -26 28
-33 8 -3 -9 -8 -10 -16 -2 -9 8 -6 17 9 36 25 33 25 38 -2 38 -15 0 -19 3 -12
10 8 8 25 8 59 0 35 -8 51 -8 61 1 8 7 17 9 21 6 3 -4 14 -2 25 4 11 6 47 10
81 10 100 -1 126 8 179 59 46 44 48 48 37 77 -15 43 -31 46 -95 18 -59 -26
-106 -33 -102 -14 2 6 -19 13 -52 16 -43 3 -61 10 -85 33 -41 39 -70 48 -137
42 -71 -6 -143 5 -162 24 -18 18 -6 61 29 98 28 30 38 32 59 10 23 -22 20 -33
-11 -45 -41 -15 -14 -32 38 -24 54 8 74 22 83 59 6 26 6 27 -9 12 -9 -9 -22
-16 -28 -15 -9 0 -8 2 1 6 20 8 14 44 -8 50 -30 8 -21 37 13 41 26 3 29 6 31
33 1 11 -27 18 -76 22 -12 1 -14 5 -8 11 6 6 10 21 10 34 0 13 4 20 10 17 6
-3 7 -17 4 -31 -4 -14 -2 -24 5 -24 6 0 11 9 11 19 0 11 5 23 11 27 7 4 9 0 5
-14 -4 -11 -2 -23 4 -27 9 -6 15 8 11 29 -1 4 1 18 5 30 7 21 7 21 15 1 4 -11
5 -31 1 -45 -5 -22 -3 -23 10 -12 12 10 14 22 7 58 -11 57 -16 64 -37 58 -13
-5 -14 -4 -3 4 8 6 10 15 6 22 -5 9 -4 11 3 6 7 -4 12 -2 12 3 0 6 7 11 15 11
9 0 12 6 9 15 -4 8 -1 21 4 28 6 7 9 30 6 50 -3 31 0 42 22 62 15 14 33 25 41
25 29 0 125 -32 115 -39 -5 -3 -8 -19 -5 -34 4 -22 8 -25 19 -16 11 9 14 8 15
-2 1 -21 28 43 29 68 0 31 -60 47 -182 47 -123 1 -132 -5 -118 -87 6 -37 6
-65 0 -75 -5 -9 -14 -36 -20 -59 -6 -24 -15 -43 -19 -43 -5 0 -15 -14 -23 -31
-20 -41 -100 -138 -114 -139 -6 0 -17 -6 -23 -14 -25 -30 -126 -69 -193 -74
-82 -6 -189 14 -243 44 -22 13 -52 28 -67 34 -17 7 -25 17 -21 26 6 15 -7 19
-23 6 -5 -4 -6 -3 -1 3 15 19 6 27 -13 10 -18 -17 -20 -17 -26 -1 -4 10 -1 23
6 29 10 10 11 7 6 -13 -6 -21 -5 -22 4 -7 9 14 8 24 -4 42 -9 13 -16 29 -16
36 0 6 -11 33 -24 60 -20 38 -25 66 -27 129 -2 91 -15 110 -76 110 -35 0 -43
8 -48 46 -3 28 6 31 105 37 57 3 72 8 118 41 91 66 182 98 293 104 54 2 120
-1 150 -7 86 -19 174 -68 228 -128 l48 -53 39 16 c53 22 231 15 287 -12 l37
-18 28 26 c152 145 435 170 622 54 25 -16 55 -38 68 -49 25 -23 26 -20 12 17
-10 28 2 76 19 76 6 0 27 -16 46 -36 l36 -36 -26 -14 c-15 -8 -31 -12 -35 -9
-14 9 -19 -23 -6 -34 15 -12 125 -35 133 -28 11 12 -36 78 -100 139 -53 51
-67 69 -55 73 10 4 19 25 23 53 4 26 13 61 20 79 11 26 11 32 0 37 -15 6 -10
65 8 101 6 11 12 38 15 59 2 22 8 48 13 57 5 10 9 34 9 54 0 58 60 147 79 117
3 -5 39 -13 78 -17 75 -7 159 6 198 32 11 7 29 13 41 13 18 0 24 -8 29 -42z
m-1968 -30 c-3 -8 -6 -5 -6 6 -1 11 2 17 5 13 3 -3 4 -12 1 -19z m-1520 -300
c-3 -8 -6 -5 -6 6 -1 11 2 17 5 13 3 -3 4 -12 1 -19z m-47 -58 c-20 -13 -40
-13 -40 0 0 6 12 10 28 10 21 0 24 -2 12 -10z m3720 -63 c0 -7 13 -28 29 -47
l28 -34 14 26 c8 15 19 28 24 30 6 2 9 6 8 9 -4 11 62 -6 86 -23 17 -12 22
-23 18 -40 -3 -13 -11 -45 -18 -71 -11 -40 -10 -50 2 -62 12 -12 21 -12 53 -3
34 11 40 10 52 -7 8 -11 17 -36 21 -57 3 -21 11 -38 18 -38 7 0 18 -7 25 -15
7 -8 21 -15 31 -15 24 0 33 -35 33 -136 0 -63 -3 -85 -16 -98 -9 -9 -21 -15
-25 -14 -4 1 -32 -1 -61 -5 -63 -9 -101 9 -148 70 -52 67 -116 195 -149 298
-8 22 -25 72 -39 112 -21 59 -24 77 -15 102 11 31 29 42 29 18z m-2760 -227
c0 -5 -4 -10 -10 -10 -5 0 -10 5 -10 10 0 6 5 10 10 10 6 0 10 -4 10 -10z
m3138 -48 c2 -7 -3 -12 -12 -12 -9 0 -16 7 -16 16 0 17 22 14 28 -4z m-4087
-65 c-10 -9 -11 -8 -5 6 3 10 9 15 12 12 3 -3 0 -11 -7 -18z m124 -206 c-6
-30 -9 -33 -15 -16 -8 19 -5 54 8 85 9 25 15 -28 7 -69z m189 -16 c-4 -8 -15
-15 -25 -15 -12 0 -16 5 -13 15 4 8 15 15 25 15 12 0 16 -5 13 -15z m1609 -5
c3 -11 1 -18 -4 -14 -5 3 -9 12 -9 20 0 20 7 17 13 -6z m-1616 -44 c-3 -7 1
-23 8 -34 18 -25 9 -34 -21 -20 -25 12 -40 41 -29 58 10 16 48 12 42 -4z
m3945 -58 c-9 -9 -15 -9 -24 0 -9 9 -7 12 12 12 19 0 21 -3 12 -12z m-102 -18
c0 -5 -2 -10 -4 -10 -3 0 -8 5 -11 10 -3 6 -1 10 4 10 6 0 11 -4 11 -10z
m-2323 -42 c-3 -8 -6 -5 -6 6 -1 11 2 17 5 13 3 -3 4 -12 1 -19z m-32 2 c3 -5
1 -10 -4 -10 -6 0 -11 5 -11 10 0 6 2 10 4 10 3 0 8 -4 11 -10z m-2347 -22
c-6 -18 -28 -21 -28 -4 0 9 7 16 16 16 9 0 14 -5 12 -12z m2434 -23 c0 -5 -5
-11 -11 -13 -6 -2 -11 4 -11 13 0 9 5 15 11 13 6 -2 11 -8 11 -13z m-246 -61
c-9 -8 -16 -26 -16 -40 0 -13 -4 -24 -10 -24 -5 0 -10 -12 -10 -26 0 -23 -3
-26 -27 -20 -16 3 -22 3 -15 0 6 -3 12 -12 12 -20 0 -8 5 -14 10 -14 12 0 13
-47 1 -54 -5 -3 -14 8 -21 25 -7 16 -15 28 -19 26 -3 -1 -26 -13 -51 -25 -25
-12 -52 -27 -61 -33 -10 -7 -27 -9 -44 -5 -16 4 -25 10 -19 14 5 4 10 15 12
25 2 13 -4 17 -27 17 -37 0 -76 37 -60 56 5 7 7 24 3 38 -5 23 -3 26 22 28 34
1 44 3 64 11 8 3 58 10 110 16 87 11 132 16 153 20 5 0 1 -6 -7 -15z m-306
-174 c0 -13 -11 -13 -30 0 -12 8 -11 10 8 10 12 0 22 -4 22 -10z m292 -49 c7
-18 86 -59 127 -66 23 -4 40 -9 37 -12 -3 -3 5 -13 17 -23 18 -15 19 -20 8
-34 -7 -9 -17 -14 -21 -11 -5 3 -12 1 -15 -5 -4 -6 -16 -8 -27 -4 -15 4 -18 3
-13 -6 8 -12 6 -12 -55 6 -14 4 -30 14 -37 23 -7 9 -13 11 -13 6 0 -6 -10 -11
-22 -12 -13 -1 -30 -11 -39 -22 -14 -17 -20 -18 -50 -8 -29 10 -34 16 -31 39
2 18 12 31 32 40 18 8 25 15 17 20 -6 3 7 5 30 4 22 -2 46 -7 52 -10 6 -4 11
-3 11 2 0 13 -31 26 -55 22 -19 -2 -19 -1 -2 17 9 11 17 25 17 31 0 14 27 16
32 3z m-1179 -42 c9 -22 29 -78 42 -125 14 -47 31 -98 39 -112 18 -34 41 -106
61 -197 9 -38 18 -77 21 -86 3 -12 -20 -31 -86 -69 -49 -30 -90 -57 -90 -61 0
-15 -61 -51 -93 -54 -72 -9 -101 -12 -84 -8 9 2 17 9 17 14 0 5 8 9 18 10 9 0
12 3 5 5 -7 3 -9 12 -6 20 3 8 0 14 -6 14 -24 0 -9 21 19 26 17 4 30 11 30 16
0 5 -10 6 -22 2 -19 -5 -18 -3 7 17 17 13 32 27 33 31 2 5 12 8 23 8 10 0 19
5 19 10 0 6 -7 10 -16 10 -13 0 -11 6 10 25 24 22 26 29 20 79 -9 77 1 117 41
160 19 21 35 40 35 42 0 2 -20 9 -45 15 -25 6 -45 15 -45 20 0 5 -9 9 -20 9
-11 0 -30 11 -42 25 -12 14 -28 25 -35 25 -7 0 -13 4 -13 10 0 5 -6 7 -13 4
-8 -3 -22 12 -35 38 l-21 43 32 17 c18 9 40 17 51 18 15 0 16 3 7 14 -11 13
-4 14 42 9 35 -4 57 -2 61 6 12 19 21 12 39 -30z m1222 -140 c-8 -12 -35 -12
-35 0 0 11 22 20 33 14 4 -2 5 -9 2 -14z m1135 -149 c0 -5 -5 -10 -11 -10 -5
0 -7 5 -4 10 3 6 8 10 11 10 2 0 4 -4 4 -10z m-1067 -17 c-7 -2 -19 -2 -25 0
-7 3 -2 5 12 5 14 0 19 -2 13 -5z m1137 -68 c16 -19 0 -19 -36 0 l-29 15 26 0
c15 0 32 -7 39 -15z m255 -70 c22 -7 66 -18 99 -26 32 -7 64 -19 71 -26 8 -7
19 -13 26 -13 7 0 9 -3 6 -6 -6 -7 -195 49 -229 67 -10 5 -26 9 -35 9 -10 0
-25 5 -33 11 -18 12 31 4 95 -16z m-240 -54 c126 -65 258 -169 253 -200 -4
-24 11 -41 30 -34 15 5 15 4 2 -10 -20 -22 -76 -9 -72 16 2 10 -4 17 -13 17
-8 0 -15 5 -15 10 0 6 10 10 22 10 20 0 20 1 4 19 -10 11 -39 25 -66 31 -33 8
-51 19 -61 36 -7 14 -18 23 -25 20 -7 -3 -20 6 -28 20 -9 13 -23 24 -30 24 -7
0 -19 6 -25 14 -7 8 -26 18 -42 21 -16 4 -29 13 -29 20 0 8 -9 17 -20 20 -11
3 -20 11 -20 16 0 15 32 3 135 -50z m-1173 -43 c-7 -7 -12 -8 -12 -2 0 14 12
26 19 19 2 -3 -1 -11 -7 -17z m296 -17 c37 -6 75 -6 94 0 17 4 43 6 57 2 23
-6 25 -5 12 10 -12 15 -10 17 13 17 61 0 166 -23 166 -36 0 -8 9 -13 23 -11
31 3 28 -15 -13 -62 -38 -46 -104 -87 -154 -96 -28 -6 -37 -2 -59 24 -14 17
-30 31 -36 31 -6 0 -11 4 -11 9 0 19 -35 22 -47 5 -12 -16 -13 -17 -13 -1 0
22 -17 22 -23 0 -3 -13 -5 -10 -6 7 -2 23 -3 24 -15 7 -12 -16 -15 -14 -32 20
-13 27 -19 33 -22 21 -2 -10 -7 -18 -12 -18 -5 0 -11 8 -14 18 -3 9 -4 0 -2
-22 2 -33 0 -36 -10 -21 -7 10 -20 15 -28 12 -9 -4 -18 -2 -21 3 -4 6 -17 7
-30 4 -22 -5 -65 20 -65 39 0 16 38 48 59 50 11 1 21 4 21 8 0 3 24 2 53 -3
28 -4 80 -12 115 -17z m375 -112 c-3 -11 -12 -23 -19 -26 -8 -3 -14 -12 -14
-21 0 -12 -3 -13 -11 -5 -9 9 -6 19 10 42 26 36 42 40 34 10z m-423 1 c0 -5
-2 -10 -4 -10 -3 0 -8 5 -11 10 -3 6 -1 10 4 10 6 0 11 -4 11 -10z m1090 0 c0
-5 -7 -7 -15 -4 -8 4 -15 8 -15 10 0 2 7 4 15 4 8 0 15 -4 15 -10z m-960 -10
c0 -5 -5 -10 -11 -10 -5 0 -7 5 -4 10 3 6 8 10 11 10 2 0 4 -4 4 -10z m2104
-56 c8 -21 8 -24 -3 -24 -5 0 -11 9 -14 20 -6 24 8 27 17 4z m-3987 0 c-3 -3
-12 -4 -19 -1 -8 3 -5 6 6 6 11 1 17 -2 13 -5z m2986 -62 c-3 -24 7 -28 24
-11 11 11 33 5 33 -10 0 -4 -10 -13 -22 -18 -20 -9 -27 -6 -50 21 -34 38 -35
48 -5 44 16 -2 21 -9 20 -26z m-2554 -103 c-15 -11 -28 -14 -34 -9 -7 6 -16 2
-26 -12 -8 -11 -25 -34 -37 -49 -13 -16 -20 -29 -16 -29 4 0 -1 -6 -12 -14
-10 -8 -16 -18 -11 -22 4 -4 13 -2 19 4 17 17 28 15 28 -5 0 -9 8 -25 17 -35
15 -17 16 -20 0 -35 -15 -15 -18 -15 -34 -1 -16 15 -19 15 -33 0 -14 -15 -15
-15 -18 0 -2 9 2 27 9 39 10 20 9 21 -10 16 -11 -3 -21 -3 -21 -1 0 2 25 41
55 87 47 68 61 83 88 87 49 9 64 0 36 -21z m2566 -9 c3 -5 -1 -10 -9 -10 -9 0
-16 5 -16 10 0 6 4 10 9 10 6 0 13 -4 16 -10z m-909 -23 c8 3 14 0 14 -6 0 -6
-6 -11 -14 -11 -18 0 -29 -17 -21 -31 5 -6 12 -4 21 8 13 17 13 17 14 -5 0
-16 -7 -26 -20 -29 -11 -3 -20 -12 -20 -19 0 -17 -2 -17 -35 -2 -19 9 -28 9
-37 0 -14 -14 -62 -16 -53 -3 3 6 -8 24 -25 41 -38 39 -35 54 12 58 28 2 40
-2 55 -21 10 -14 28 -26 39 -29 10 -2 19 -8 19 -15 0 -6 3 -15 8 -19 4 -4 7 3
7 15 0 12 -7 24 -15 27 -8 4 -15 11 -15 16 0 16 34 38 44 28 5 -5 15 -6 22 -3z
m944 -37 c0 -5 -4 -10 -10 -10 -5 0 -10 5 -10 10 0 6 5 10 10 10 6 0 10 -4 10
-10z m635 -110 c3 -5 1 -10 -4 -10 -6 0 -11 5 -11 10 0 6 2 10 4 10 3 0 8 -4
11 -10z m-3330 -50 c8 -13 -5 -13 -25 0 -13 8 -13 10 2 10 9 0 20 -4 23 -10z
m2385 -44 c0 -7 9 -16 21 -19 13 -4 19 -12 17 -25 -2 -10 2 -30 9 -43 6 -13
16 -38 21 -56 9 -28 7 -34 -20 -59 -29 -25 -32 -26 -57 -11 -16 9 -27 26 -29
43 -3 20 -6 24 -12 14 -14 -22 0 69 18 123 15 45 32 62 32 33z m-2392 -20 c2
-2 -6 -19 -17 -37 -26 -42 -27 -62 -2 -31 11 12 22 22 25 22 11 0 6 -18 -8
-33 -17 -16 -38 -86 -30 -99 13 -20 -7 -77 -33 -94 -19 -12 -28 -14 -31 -5 -3
9 -8 9 -20 -1 -12 -11 -16 -11 -20 0 -3 10 -7 10 -18 1 -11 -9 -14 -8 -14 6 0
14 -3 15 -15 5 -13 -11 -15 -8 -15 16 0 16 4 43 9 61 7 26 7 31 -5 26 -17 -6
-17 -5 1 48 19 52 59 107 89 120 18 8 94 4 104 -5z m-1038 -26 c0 -5 -12 -10
-26 -10 -14 0 -23 4 -19 10 3 6 15 10 26 10 10 0 19 -4 19 -10z m-680 -10 c0
-5 -5 -10 -11 -10 -5 0 -7 5 -4 10 3 6 8 10 11 10 2 0 4 -4 4 -10z m3938 -42
c19 -19 14 -30 -10 -26 -13 2 -24 11 -26 21 -4 20 18 23 36 5z m-58 -81 c0 -4
4 -5 10 -2 11 7 41 -7 64 -31 27 -26 18 -36 -12 -14 -16 12 -38 22 -50 23 -12
1 -22 5 -22 9 0 4 -7 5 -15 2 -9 -4 -15 0 -15 8 0 7 9 14 20 14 11 0 20 -4 20
-9z m1435 -70 c15 -44 7 -66 -11 -32 -14 28 -20 84 -7 71 4 -3 12 -21 18 -39z
m-1480 -7 c20 -29 44 -43 98 -54 19 -5 27 -13 27 -28 0 -17 -3 -19 -12 -10
-16 16 -56 15 -74 -2 -18 -19 -18 -53 1 -72 26 -26 16 -35 -17 -17 -18 9 -35
18 -38 18 -40 10 -60 19 -60 26 0 5 13 7 30 4 59 -10 60 65 2 111 -23 19 -25
24 -13 38 19 23 33 20 56 -14z m279 -60 c-1 -8 -4 -34 -8 -57 -7 -36 -5 -43 8
-43 23 0 21 -62 -4 -102 -11 -18 -20 -27 -20 -20 0 7 -4 10 -10 7 -5 -3 -10
-17 -10 -31 0 -17 -6 -24 -19 -24 -32 0 -39 22 -35 110 7 151 5 144 38 162 36
20 61 18 60 -2z m1156 -47 c0 -7 -5 -13 -12 -13 -6 0 -3 -6 7 -14 11 -8 16
-20 12 -29 -3 -9 -2 -19 3 -22 14 -9 12 -52 -2 -61 -6 -4 -17 1 -25 12 -7 10
-10 20 -5 22 12 4 2 54 -15 70 -10 10 -11 18 -3 27 6 7 7 20 4 30 -6 15 -5 16
15 4 11 -8 21 -19 21 -26z m-3644 15 c4 -6 -2 -18 -13 -28 -19 -15 -28 -42
-37 -107 -2 -16 -1 -18 1 -6 3 15 9 20 20 16 11 -4 14 -2 9 5 -4 7 -2 20 3 29
8 14 10 8 11 -30 0 -27 4 -57 10 -67 11 -20 -11 -47 -30 -35 -5 3 -10 -1 -10
-9 0 -9 5 -16 11 -16 8 0 10 -12 6 -35 -3 -19 -2 -35 4 -35 5 0 9 -4 9 -10 0
-9 -24 -7 -89 6 -22 5 -23 6 -5 19 15 11 16 15 4 15 -8 0 -25 9 -37 19 -20 17
-23 29 -23 90 0 84 15 127 59 164 34 28 84 36 97 15z m-1741 -8 c3 -5 -1 -10
-10 -10 -9 0 -13 5 -10 10 3 6 8 10 10 10 2 0 7 -4 10 -10z m4120 -9 c-3 -6
-14 -11 -23 -11 -15 1 -15 2 2 15 21 16 32 13 21 -4z m1488 2 c-7 -2 -19 -2
-25 0 -7 3 -2 5 12 5 14 0 19 -2 13 -5z m-1493 -27 c0 -3 -4 -8 -10 -11 -5 -3
-10 -1 -10 4 0 6 5 11 10 11 6 0 10 -2 10 -4z m1549 -26 c-11 -30 -23 -38 -34
-20 -6 9 23 47 37 49 4 1 2 -12 -3 -29z m-1694 -117 c5 -52 3 -78 -5 -88 -20
-24 -30 -17 -19 14 14 41 -4 76 -34 66 -12 -4 -32 -9 -44 -12 -30 -7 -29 -26
2 -43 41 -22 12 -32 -35 -12 -37 15 -43 22 -45 51 -2 24 1 31 11 27 8 -3 35 4
60 14 25 11 55 20 66 20 16 0 19 5 14 24 -6 26 4 43 15 25 4 -7 10 -45 14 -86z
m-59 -107 c20 -21 17 -28 -6 -16 -11 6 -20 15 -20 20 0 14 9 12 26 -4z m-83
-46 c19 -22 22 -40 8 -40 -11 0 -41 39 -41 52 0 14 15 8 33 -12z"/>
<path d="M3235 3800 c3 -5 8 -10 11 -10 2 0 4 5 4 10 0 6 -5 10 -11 10 -5 0
-7 -4 -4 -10z"/>
<path d="M3285 3799 c-12 -19 5 -23 22 -6 16 16 16 17 1 17 -9 0 -20 -5 -23
-11z"/>
<path d="M3197 3751 c-4 -17 -2 -18 19 -9 13 6 21 15 18 19 -9 16 -32 9 -37
-10z"/>
<path d="M3010 3380 c0 -5 5 -10 11 -10 5 0 7 5 4 10 -3 6 -8 10 -11 10 -2 0
-4 -4 -4 -10z"/>
<path d="M2955 3320 c3 -5 10 -10 16 -10 5 0 9 5 9 10 0 6 -7 10 -16 10 -8 0
-12 -4 -9 -10z"/>
<path d="M3730 3030 c0 -5 5 -10 11 -10 5 0 7 5 4 10 -3 6 -8 10 -11 10 -2 0
-4 -4 -4 -10z"/>
<path d="M2930 2901 c-51 -9 -14 -18 45 -10 28 3 42 7 33 7 -9 1 -22 4 -30 6
-7 2 -29 0 -48 -3z"/>
<path d="M2809 2881 c12 -8 8 -11 -15 -16 -16 -4 -43 -11 -60 -16 -18 -6 -47
-9 -66 -7 -18 1 -39 -1 -45 -5 -6 -4 -14 -3 -17 2 -3 5 4 11 16 14 12 4 19 9
16 12 -19 19 -106 -58 -142 -125 -24 -44 -27 -59 -25 -132 2 -94 35 -203 51
-173 6 10 5 21 -2 31 -9 10 -9 14 -1 14 6 0 11 -5 11 -11 0 -6 7 -9 14 -6 11
4 13 1 10 -11 -3 -9 4 -2 16 16 15 22 30 32 48 32 15 0 33 4 40 9 7 4 36 4 65
-1 100 -18 149 -19 144 -4 -4 10 5 14 35 14 23 1 44 4 47 9 3 4 16 9 27 11 36
5 24 -36 -26 -85 -25 -24 -58 -47 -73 -50 -16 -3 -31 -12 -34 -19 -3 -8 -21
-13 -45 -12 -32 0 -45 -5 -59 -23 -26 -33 -24 -36 21 -41 22 -2 40 0 40 4 0 4
18 12 39 18 21 5 42 17 45 26 3 8 14 14 23 13 10 -2 29 3 43 10 18 11 25 11
28 2 3 -9 9 -7 22 4 17 16 19 15 30 -4 6 -12 8 -21 4 -21 -3 0 0 -8 7 -17 11
-15 11 -16 -1 -5 -8 6 -23 12 -34 12 -20 0 -20 0 0 -15 18 -14 18 -14 -6 -15
-22 -1 -23 -2 -7 -11 18 -11 33 -4 77 33 24 20 90 104 90 114 0 5 9 26 20 47
11 20 18 37 15 37 -3 0 -1 10 6 22 10 18 9 20 -5 15 -10 -4 -16 -1 -16 8 0 8
5 15 10 15 20 0 11 117 -11 157 -34 60 -144 156 -126 110 10 -26 -30 -62 -70
-64 -21 -1 -61 -5 -88 -8 -55 -8 -83 9 -71 40 5 13 19 15 76 12 39 -2 73 0 76
4 3 5 -15 9 -40 9 -34 0 -46 4 -46 15 0 11 -12 15 -47 15 -33 0 -43 -3 -34 -9z
m-29 -41 c0 -5 -4 -10 -10 -10 -5 0 -10 5 -10 10 0 6 5 10 10 10 6 0 10 -4 10
-10z m-45 -151 c10 -32 -8 -42 -59 -35 -25 4 -46 10 -46 14 1 9 60 39 82 41 9
0 20 -8 23 -20z m225 -19 c0 -5 -7 -10 -15 -10 -8 0 -15 5 -15 10 0 6 7 10 15
10 8 0 15 -4 15 -10z m-380 -160 c0 -5 -4 -10 -9 -10 -5 0 -16 -3 -25 -6 -9
-3 -16 -1 -16 4 0 9 16 17 43 21 4 0 7 -3 7 -9z"/>
<path d="M3887 2869 c-9 -5 -21 -8 -25 -5 -15 9 -97 -25 -141 -59 -69 -54
-102 -106 -104 -164 l-3 -49 81 -5 c108 -7 144 -13 180 -28 25 -10 27 -13 11
-17 -10 -2 -22 1 -26 8 -6 9 -9 9 -13 -1 -4 -9 -6 -10 -6 -2 -1 7 -8 10 -16 7
-8 -4 -21 -2 -28 4 -6 5 -36 12 -66 15 -48 6 -52 5 -35 -8 18 -14 17 -14 -11
-15 -23 0 -27 -3 -15 -10 8 -5 24 -7 35 -4 11 4 17 3 13 -1 -9 -9 37 -35 62
-35 20 0 77 -27 85 -41 4 -5 24 -9 45 -9 21 0 41 -4 45 -10 4 -6 15 -5 30 2
20 9 22 14 14 30 -7 14 -6 20 6 24 31 12 7 28 -57 38 -4 1 -12 6 -18 12 -9 9
-1 11 29 9 23 -1 41 1 41 5 0 4 18 15 41 25 33 15 44 16 60 7 21 -13 58 -16
75 -4 6 4 11 32 10 63 -1 56 -19 94 -41 86 -6 -3 -28 4 -49 14 -22 10 -49 16
-60 13 -24 -6 -56 22 -60 52 -2 12 -16 22 -39 27 -21 5 -37 13 -37 19 0 5 10
6 23 3 17 -5 19 -4 7 4 -18 13 -21 13 -43 0z m-22 -19 c3 -5 -1 -10 -9 -10 -9
0 -16 5 -16 10 0 6 4 10 9 10 6 0 13 -4 16 -10z m15 -205 c0 -19 0 -38 0 -42
0 -10 -42 -9 -92 1 -45 8 -50 32 -10 47 15 6 34 15 42 19 8 5 25 9 38 9 19 1
22 -4 22 -34z"/>
<path d="M4152 2831 c7 -11 16 -17 20 -15 5 3 15 -2 24 -10 14 -14 12 -20 -7
-18 -3 1 -2 -20 2 -46 4 -26 9 -54 9 -62 1 -8 7 7 13 34 14 58 33 71 33 23 0
-18 14 -61 32 -95 18 -34 32 -68 32 -76 0 -8 5 -18 11 -22 18 -11 5 115 -16
160 -23 48 -88 114 -120 122 -14 3 -25 10 -25 15 0 5 -5 9 -10 9 -6 0 -5 -8 2
-19z m83 -51 c-3 -5 -11 -10 -16 -10 -6 0 -7 5 -4 10 3 6 11 10 16 10 6 0 7
-4 4 -10z"/>
<path d="M3500 2590 c0 -5 9 -24 20 -42 l20 -33 0 30 c0 19 -7 35 -20 43 -11
7 -20 8 -20 2z"/>
<path d="M4270 2524 c0 -16 5 -36 11 -44 7 -11 8 -4 3 25 -8 50 -14 58 -14 19z"/>
<path d="M3603 2345 c6 -22 13 -31 18 -24 4 7 0 23 -8 36 -21 32 -23 29 -10
-12z"/>
<path d="M3008 2363 c7 -3 16 -2 19 1 4 3 -2 6 -13 5 -11 0 -14 -3 -6 -6z"/>
<path d="M3690 2177 c0 -13 7 -32 15 -43 14 -18 14 -18 10 4 -3 18 0 22 13 18
10 -4 22 2 29 13 10 17 8 19 -19 25 -45 9 -48 8 -48 -17z"/>
<path d="M3736 2097 c3 -10 9 -15 12 -12 3 3 0 11 -7 18 -10 9 -11 8 -5 -6z"/>
<path d="M3958 1833 c7 -3 16 -2 19 1 4 3 -2 6 -13 5 -11 0 -14 -3 -6 -6z"/>
<path d="M3945 1785 c65 -27 79 -30 70 -16 -5 9 -102 41 -122 41 -4 0 19 -12
52 -25z"/>
<path d="M3920 1760 c0 -5 -10 -10 -22 -10 -17 0 -19 -3 -10 -9 8 -4 13 -11
13 -15 -2 -16 0 -18 14 -6 10 9 15 9 15 1 0 -21 -2 -26 -11 -23 -5 1 -9 -9 -9
-23 0 -14 5 -25 10 -25 6 0 10 7 10 15 0 8 5 15 10 15 6 0 13 -7 16 -15 4 -8
10 -15 16 -15 5 0 6 5 3 11 -4 5 1 19 10 29 10 11 15 26 12 35 -8 19 -27 20
-27 0 0 -8 -5 -15 -11 -15 -5 0 -8 3 -6 8 7 11 -11 52 -23 52 -5 0 -10 -4 -10
-10z"/>
<path d="M3419 1753 c-15 -4 -49 -67 -49 -90 0 -6 -10 -9 -22 -6 -22 4 -22 4
-5 -10 24 -20 74 -6 105 29 25 29 25 60 0 58 -10 -1 -14 4 -11 12 3 8 4 13 2
13 -2 -1 -11 -3 -20 -6z"/>
<path d="M4007 1706 c-4 -10 -5 -21 -2 -24 9 -9 17 6 13 25 -3 17 -4 17 -11
-1z"/>
<path d="M4041 1704 c0 -11 3 -14 6 -6 3 7 2 16 -1 19 -3 4 -6 -2 -5 -13z"/>
<path d="M3510 1689 c-11 -8 -12 -12 -2 -16 6 -2 12 -11 12 -18 0 -14 22 -25
51 -25 10 0 19 -4 19 -10 0 -5 3 -10 8 -10 4 0 7 11 7 24 0 13 -3 22 -7 19 -5
-2 -8 2 -8 10 0 7 -11 19 -25 25 -31 15 -36 15 -55 1z"/>
<path d="M3295 1670 c3 -5 10 -10 16 -10 5 0 9 5 9 10 0 6 -7 10 -16 10 -8 0
-12 -4 -9 -10z"/>
<path d="M3995 1650 c7 -12 55 -14 55 -2 0 4 -14 8 -30 9 -18 1 -28 -2 -25 -7z"/>
<path d="M3963 1595 c0 -29 3 -30 23 -11 20 20 18 36 -5 36 -13 0 -18 -7 -18
-25z"/>
<path d="M4020 1580 c0 -5 5 -10 11 -10 5 0 7 5 4 10 -3 6 -8 10 -11 10 -2 0
-4 -4 -4 -10z"/>
<path d="M3890 1551 c0 -5 -3 -16 -6 -25 -4 -11 -1 -16 10 -16 9 0 16 4 16 9
0 5 3 16 6 25 4 11 1 16 -10 16 -9 0 -16 -4 -16 -9z"/>
<path d="M3975 1550 c3 -5 8 -10 11 -10 2 0 4 5 4 10 0 6 -5 10 -11 10 -5 0
-7 -4 -4 -10z"/>
<path d="M3805 1489 c-4 -5 5 -9 19 -9 14 0 26 4 26 8 0 11 -39 12 -45 1z"/>
<path d="M2640 2069 c0 -5 11 -9 25 -9 14 0 25 2 25 4 0 2 -11 6 -25 8 -14 3
-25 1 -25 -3z"/>
<path d="M3020 1842 c0 -14 11 -21 26 -15 8 3 11 9 8 14 -7 11 -34 12 -34 1z"/>
<path d="M5696 2258 c3 -18 8 -54 11 -80 9 -76 23 -56 23 32 0 73 -2 80 -20
80 -16 0 -18 -5 -14 -32z"/>
<path d="M5440 1426 c0 -9 5 -16 10 -16 6 0 10 4 10 9 0 6 -4 13 -10 16 -5 3
-10 -1 -10 -9z"/>
<path d="M5700 420 c0 -5 7 -10 16 -10 8 0 12 5 9 10 -3 6 -10 10 -16 10 -5 0
-9 -4 -9 -10z"/>
<path d="M1613 3 c9 -2 23 -2 30 0 6 3 -1 5 -18 5 -16 0 -22 -2 -12 -5z"/>
</g>
</svg>
